#!OML:ASF H:\Pregnant\Project 1\Capture day 1\Session 1\femalepreg.ASF
:FULLY-SPECIFIED
:DEGREES
987
root 22.7144 15.5808 7.82056 -161.12 191.038 -177.986
lowerback -14.0496 -2.63698 -9.24492
upperback -5.79114 -2.26434 -1.73127
thorax 1.98474 -1.04906 3.02328
lowerneck -13.4486 -10.9779 -7.255
upperneck 21.3107 -16.0054 8.97328
head 10.3614 -7.10011 2.10675
rclavicle 1.15668e-014 -2.06736e-014
rhumerus -38.9149 -5.02001 -77.8028
rradius 22.027
rwrist 3.1054
rhand -9.99338 -13.9848
rfingers 7.12502
rthumb 15.99 -43.3449
lclavicle 1.15668e-014 -2.06736e-014
lhumerus -35.4636 -12.8139 84.4402
lradius 27.4012
lwrist 40.8579
lhand -18.2895 -4.94731
lfingers 7.12502
lthumb 7.99096 24.8816
rfemur -33.5361 8.55947 17.591
rtibia 65.8484
rfoot -3.52937 3.30747
rtoes -19.4271
lfemur -35.8271 -6.00419 -26.584
ltibia 24.9122
lfoot -6.80337 -6.59676
ltoes -11.2874
988
root 22.7089 15.5839 7.91327 -161.063 190.981 -178.17
lowerback -13.9568 -2.67023 -9.15098
upperback -5.75243 -2.3286 -1.72948
thorax 1.98173 -1.08301 2.96447
lowerneck -13.3985 -10.9464 -7.23385
upperneck 21.1991 -15.9906 9.1102
head 10.3219 -7.08306 2.15653
rclavicle -2.75441e-014 0
rhumerus -38.7957 -5.06352 -77.9386
rradius 22.1638
rwrist 3.48128
rhand -10.1265 -13.814
rfingers 7.12502
rthumb 15.8618 -43.1843
lclavicle -2.75441e-014 0
lhumerus -35.1676 -12.9881 84.2696
lradius 27.6482
lwrist 40.8705
lhand -18.781 -5.75064
lfingers 7.12502
lthumb 7.51653 24.0958
rfemur -34.6657 8.52023 17.7164
rtibia 66.2718
rfoot -4.43753 2.21782
rtoes -19.2652
lfemur -35.625 -6.02221 -26.4461
ltibia 25.2085
lfoot -7.23992 -6.47181
ltoes -11.206
989
root 22.7037 15.5868 8.00611 -161.013 190.919 -178.358
lowerback -13.8616 -2.70518 -9.05734
upperback -5.71192 -2.39557 -1.7087
thorax 1.98025 -1.1182 2.92554
lowerneck -13.3483 -10.914 -7.23039
upperneck 21.092 -15.9676 9.23615
head 10.2837 -7.06467 2.20639
rclavicle -2.45251e-014 -1.98785e-014
rhumerus -38.6809 -5.05939 -78.0762
rradius 22.3642
rwrist 3.74461
rhand -10.2745 -13.6717
rfingers 7.12502
rthumb 15.7193 -43.0533
lclavicle -2.45251e-014 -1.98785e-014
lhumerus -34.8504 -13.0916 84.0965
lradius 27.884
lwrist 40.8924
lhand -19.3343 -6.67153
lfingers 7.12502
lthumb 6.9825 23.1933
rfemur -35.7572 8.4988 17.8392
rtibia 66.5521
rfoot -5.30166 1.25134
rtoes -18.9544
lfemur -35.42 -6.05058 -26.3015
ltibia 25.513
lfoot -7.67053 -6.3384
ltoes -11.1361
990
root 22.6984 15.5892 8.10002 -160.98 190.878 -178.54
lowerback -13.7698 -2.73477 -8.9803
upperback -5.66697 -2.45299 -1.67128
thorax 1.98507 -1.14862 2.91483
lowerneck -13.3185 -10.8902 -7.24446
upperneck 21.0202 -15.9464 9.32585
head 10.2603 -7.05023 2.24473
rclavicle 3.33213e-014 1.66979e-014
rhumerus -38.5735 -4.99306 -78.2168
rradius 22.6246
rwrist 3.85891
rhand -10.4459 -13.5694
rfingers 7.12502
rthumb 15.5543 -42.9639
lclavicle 3.33213e-014 1.66979e-014
lhumerus -34.5177 -13.129 83.935
lradius 28.098
lwrist 40.9282
lhand -19.9242 -7.66533
lfingers 7.12502
lthumb 6.41295 22.2176
rfemur -36.807 8.51224 17.939
rtibia 66.6993
rfoot -6.12594 0.406115
rtoes -18.565
lfemur -35.1848 -6.09231 -26.1622
ltibia 25.8021
lfoot -8.09327 -6.17315
ltoes -11.0895
991
root 22.6926 15.5909 8.1939 -160.945 190.856 -178.693
lowerback -13.6993 -2.75724 -8.93579
upperback -5.60917 -2.49324 -1.639
thorax 2.01359 -1.17134 2.91864
lowerneck -13.3343 -10.8794 -7.25603
upperneck 20.9643 -15.9416 9.40796
head 10.2517 -7.04145 2.27483
rclavicle -1.11319e-014 3.26007e-014
rhumerus -38.4477 -4.9045 -78.3732
rradius 22.9318
rwrist 3.81311
rhand -10.6197 -13.508
rfingers 7.12502
rthumb 15.3868 -42.9154
lclavicle -1.11319e-014 3.26007e-014
lhumerus -34.1387 -13.1486 83.7659
lradius 28.2979
lwrist 40.9909
lhand -20.4894 -8.47797
lfingers 7.12502
lthumb 5.86736 21.4208
rfemur -37.8505 8.55296 17.9952
rtibia 66.7303
rfoot -6.9186 -0.333134
rtoes -18.1487
lfemur -34.9407 -6.13292 -26.0532
ltibia 26.0614
lfoot -8.49324 -6.00247
ltoes -11.0711
992
root 22.686 15.5919 8.28731 -160.899 190.831 -178.813
lowerback -13.64 -2.78586 -8.93799
upperback -5.55814 -2.53493 -1.60161
thorax 2.04257 -1.19402 2.95334
lowerneck -13.3691 -10.8768 -7.27786
upperneck 20.9355 -15.9439 9.47289
head 10.2564 -7.03675 2.29819
rclavicle 1.98785e-015 2.8625e-014
rhumerus -38.3326 -4.7673 -78.5396
rradius 23.2922
rwrist 3.59875
rhand -10.802 -13.4662
rfingers 7.12502
rthumb 15.2112 -42.887
lclavicle 1.98785e-015 2.8625e-014
lhumerus -33.7503 -13.1369 83.6086
lradius 28.4764
lwrist 41.0739
lhand -20.9675 -9.00727
lfingers 7.12502
lthumb 5.40573 20.9038
rfemur -38.8926 8.60273 18.0131
rtibia 66.6533
rfoot -7.67707 -1.01162
rtoes -17.8428
lfemur -34.7045 -6.17262 -25.9785
ltibia 26.2957
lfoot -8.87328 -5.84994
ltoes -11.0866
